<?xml version="1.0" encoding="utf-8"?>
<svg width="777px" height="491px" viewbox="0 0 777 491" version="1.1" xmlns:xlink="http://www.w3.org/1999/xlink" xmlns="http://www.w3.org/2000/svg">
  <path d="M0 0L777 0L777 491L0 491L0 0Z" id="Rectangle" fill="#0FBD8C" fill-rule="evenodd" stroke="none" />
  <g fill="#FFFFFF" stroke="none" id="CANVAS" transform="translate(97 54)">
    <path d="M144.641 226.231Q155.75 226.231 163.203 222.294L163.203 214.653Q155.797 219.153 145.672 219.153Q134.75 219.153 128.023 211.864Q121.297 204.575 121.297 192.294Q121.297 179.356 128.492 171.622Q135.688 163.888 147.266 163.888Q155.984 163.888 163.203 167.919L163.203 159.528Q156.922 156.763 147.359 156.763Q132.453 156.763 122.75 166.7Q113.047 176.638 113.047 192.763Q113.047 207.763 121.672 216.997Q130.297 226.231 144.641 226.231ZM429.031 213.106L429.031 222.388Q430.344 223.278 432.523 224.005Q434.703 224.731 437.141 225.224Q439.578 225.716 441.922 225.974Q444.266 226.231 445.859 226.231Q450.641 226.231 454.953 225.27Q459.266 224.31 462.57 222.153Q465.875 219.997 467.82 216.552Q469.766 213.106 469.766 208.138Q469.766 204.388 468.336 201.481Q466.906 198.575 464.469 196.185Q462.031 193.794 458.797 191.825Q455.563 189.856 451.953 188.075Q448.438 186.341 445.742 184.888Q443.047 183.435 441.172 181.888Q439.297 180.341 438.336 178.466Q437.375 176.591 437.375 174.013Q437.375 171.247 438.641 169.325Q439.906 167.403 441.922 166.185Q443.938 164.966 446.516 164.427Q449.094 163.888 451.672 163.888Q461 163.888 466.953 168.013L466.953 159.153Q462.406 156.763 452.469 156.763Q448.109 156.763 443.914 157.841Q439.719 158.919 436.438 161.122Q433.156 163.325 431.141 166.724Q429.125 170.122 429.125 174.716Q429.125 178.466 430.414 181.255Q431.703 184.044 433.953 186.247Q436.203 188.45 439.25 190.278Q442.297 192.106 445.813 193.888Q449.141 195.575 452.023 197.099Q454.906 198.622 457.016 200.286Q459.125 201.95 460.32 203.966Q461.516 205.981 461.516 208.7Q461.516 213.763 457.93 216.458Q454.344 219.153 447.078 219.153Q444.969 219.153 442.484 218.731Q440 218.31 437.539 217.536Q435.078 216.763 432.852 215.638Q430.625 214.513 429.031 213.106ZM220.203 225.106L228.922 225.106L203.047 157.888L194.891 157.888L169.109 225.106L177.875 225.106L184.578 206.263L213.078 206.263L220.203 225.106ZM293 225.106L283.344 225.106L248.75 171.528Q247.438 169.513 246.594 167.31L246.313 167.31Q246.688 169.466 246.688 176.544L246.688 225.106L238.813 225.106L238.813 157.888L249.031 157.888L282.688 210.622Q284.797 213.903 285.406 215.122L285.594 215.122Q285.125 212.216 285.125 205.231L285.125 157.888L293 157.888L293 225.106ZM335.703 225.106L360.594 157.888L352.109 157.888L333.125 211.091Q331.953 214.325 331.578 217.138L331.391 217.138Q330.922 213.763 330.031 211.185L311.422 157.888L302.656 157.888L327.031 225.106L335.703 225.106ZM422.281 225.106L413.563 225.106L406.438 206.263L377.938 206.263L371.234 225.106L362.469 225.106L388.25 157.888L396.406 157.888L422.281 225.106ZM199.953 170.544L210.5 199.185L187.203 199.185L197.656 170.544Q198.266 168.903 198.734 166.044L198.922 166.044Q199.438 169.138 199.953 170.544ZM403.859 199.185L393.313 170.544Q392.797 169.138 392.281 166.044L392.094 166.044Q391.625 168.903 391.016 170.544L380.563 199.185L403.859 199.185Z" />
  </g>
</svg>