<?xml version="1.0" encoding="utf-8"?>
<svg width="777px" height="491px" viewbox="0 0 777 491" version="1.1" xmlns:xlink="http://www.w3.org/1999/xlink" xmlns="http://www.w3.org/2000/svg">
  <path d="M0 0L777 0L777 491L0 491L0 0Z" id="Rectangle" fill="#0FBD8C" fill-rule="evenodd" stroke="none" />
  <g id="{-JSON-}--FETCH-" transform="translate(97 54)">
    <g fill="#FFFFFF" stroke="none" id="{-JSON-}">
      <path d="M216.711 158.388L216.711 149.106Q218.305 150.513 220.531 151.638Q222.758 152.763 225.219 153.536Q227.68 154.31 230.164 154.731Q232.648 155.153 234.758 155.153Q242.023 155.153 245.609 152.458Q249.195 149.763 249.195 144.7Q249.195 141.981 248 139.966Q246.805 137.95 244.695 136.286Q242.586 134.622 239.703 133.099Q236.82 131.575 233.492 129.888Q229.977 128.106 226.93 126.278Q223.883 124.45 221.633 122.247Q219.383 120.044 218.094 117.255Q216.805 114.466 216.805 110.716Q216.805 106.122 218.82 102.724Q220.836 99.3251 224.117 97.122Q227.398 94.9189 231.594 93.8408Q235.789 92.7626 240.148 92.7626Q250.086 92.7626 254.633 95.1533L254.633 104.013Q248.68 99.8876 239.352 99.8876Q236.773 99.8876 234.195 100.427Q231.617 100.966 229.602 102.185Q227.586 103.403 226.32 105.325Q225.055 107.247 225.055 110.013Q225.055 112.591 226.016 114.466Q226.977 116.341 228.852 117.888Q230.727 119.435 233.422 120.888Q236.117 122.341 239.633 124.075Q243.242 125.856 246.477 127.825Q249.711 129.794 252.148 132.185Q254.586 134.575 256.016 137.481Q257.445 140.388 257.445 144.138Q257.445 149.106 255.5 152.552Q253.555 155.997 250.25 158.153Q246.945 160.31 242.633 161.27Q238.32 162.231 233.539 162.231Q231.945 162.231 229.602 161.974Q227.258 161.716 224.82 161.224Q222.383 160.731 220.203 160.005Q218.023 159.278 216.711 158.388ZM275.047 152.81Q283.648 162.231 297.945 162.231Q312.57 162.231 321.289 152.669Q330.008 143.106 330.008 126.653Q330.008 111.513 321.5 102.138Q312.992 92.7626 299.07 92.7626Q283.977 92.7626 275.211 102.419Q266.445 112.075 266.445 128.294Q266.445 143.388 275.047 152.81ZM133.133 161.856Q133.133 176.2 147.523 176.388L147.523 170.481Q143.398 170.388 141.734 168.161Q140.07 165.935 140.07 160.731L140.07 147.185Q140.07 137.294 133.039 135.185L133.039 134.997Q140.07 132.747 140.07 122.903L140.07 109.169Q140.07 100.075 147.523 99.8876L147.523 93.8876Q133.133 94.0751 133.133 108.606L133.133 122.294Q133.133 131.95 125.82 132.419L125.82 137.856Q133.133 138.325 133.133 147.794L133.133 161.856ZM197.727 155.599Q202.789 148.966 202.789 137.013L202.789 93.8876L194.914 93.8876L194.914 137.106Q194.914 155.153 184.273 155.153Q180.242 155.153 177.711 153.325L177.711 161.106Q180.242 162.231 184.18 162.231Q192.664 162.231 197.727 155.599ZM397.414 161.106L387.758 161.106L353.164 107.528Q351.852 105.513 351.008 103.31L350.727 103.31Q351.102 105.466 351.102 112.544L351.102 161.106L343.227 161.106L343.227 93.8876L353.445 93.8876L387.102 146.622Q389.211 149.903 389.82 151.122L390.008 151.122Q389.539 148.216 389.539 141.231L389.539 93.8876L397.414 93.8876L397.414 161.106ZM449.961 147.794Q449.961 138.325 457.273 137.856L457.273 132.419Q449.961 131.95 449.961 122.294L449.961 108.606Q449.961 94.0751 435.617 93.8876L435.617 99.8876Q443.117 100.075 443.117 109.169L443.117 122.903Q443.117 132.747 450.102 134.997L450.102 135.185Q443.117 137.294 443.117 147.185L443.117 160.731Q443.117 165.888 441.406 168.138Q439.695 170.388 435.617 170.481L435.617 176.388Q449.961 176.2 449.961 161.856L449.961 147.794ZM281.305 107.528Q287.914 99.8876 298.508 99.8876Q309.383 99.8876 315.57 107.153Q321.758 114.419 321.758 127.731Q321.758 140.716 315.383 147.935Q309.008 155.153 297.945 155.153Q287.586 155.153 281.141 147.583Q274.695 140.013 274.695 127.591Q274.695 115.169 281.305 107.528Z" />
    </g>
    <g fill="#FFFFFF" stroke="none" id="-FETCH-">
      <path d="M355.133 286.294Q347.68 290.231 336.57 290.231Q322.227 290.231 313.602 280.997Q304.977 271.763 304.977 256.763Q304.977 240.638 314.68 230.7Q324.383 220.763 339.289 220.763Q348.852 220.763 355.133 223.528L355.133 231.919Q347.914 227.888 339.195 227.888Q327.617 227.888 320.422 235.622Q313.227 243.356 313.227 256.294Q313.227 268.575 319.953 275.864Q326.68 283.153 337.602 283.153Q347.727 283.153 355.133 278.653L355.133 286.294ZM197.773 229.013L171.523 229.013L171.523 252.263L195.805 252.263L195.805 259.341L171.523 259.341L171.523 289.106L163.648 289.106L163.648 221.888L197.773 221.888L197.773 229.013ZM246.148 289.106L210.523 289.106L210.523 221.888L244.648 221.888L244.648 229.013L218.398 229.013L218.398 251.372L242.68 251.372L242.68 258.45L218.398 258.45L218.398 281.981L246.148 281.981L246.148 289.106ZM279.43 229.013L298.836 229.013L298.836 221.888L252.195 221.888L252.195 229.013L271.555 229.013L271.555 289.106L279.43 289.106L279.43 229.013ZM411.477 289.106L419.352 289.106L419.352 221.888L411.477 221.888L411.477 251.372L376.695 251.372L376.695 221.888L368.82 221.888L368.82 289.106L376.695 289.106L376.695 258.45L411.477 258.45L411.477 289.106Z" />
    </g>
  </g>
</svg>