<?xml version="1.0" encoding="utf-8"?>
<svg width="777px" height="491px" viewbox="0 0 777 491" version="1.1" xmlns:xlink="http://www.w3.org/1999/xlink" xmlns="http://www.w3.org/2000/svg">
  <path d="M0 0L777 0L777 491L0 491L0 0Z" id="Rectangle" fill="#0FBD8C" fill-rule="evenodd" stroke="none" />
  <g fill="#FFFFFF" stroke="none" id="40CODE" transform="translate(97 54)">
    <path d="M213.945 206.169Q215.469 199.653 215.469 191.216Q215.469 156.763 194.328 156.763Q188.844 156.763 184.602 159.083Q180.359 161.403 177.5 165.974Q174.641 170.544 173.164 177.294Q171.688 184.044 171.688 192.856Q171.688 200.872 173.094 207.083Q174.5 213.294 177.219 217.56Q179.938 221.825 183.898 224.052Q187.859 226.278 192.922 226.278Q198.266 226.278 202.461 223.958Q206.656 221.638 209.539 217.161Q212.422 212.685 213.945 206.169ZM273.969 222.294Q266.516 226.231 255.406 226.231Q241.063 226.231 232.438 216.997Q223.813 207.763 223.813 192.763Q223.813 176.638 233.516 166.7Q243.219 156.763 258.125 156.763Q267.688 156.763 273.969 159.528L273.969 167.919Q266.75 163.888 258.031 163.888Q246.453 163.888 239.258 171.622Q232.063 179.356 232.063 192.294Q232.063 204.575 238.789 211.864Q245.516 219.153 256.438 219.153Q266.563 219.153 273.969 214.653L273.969 222.294ZM291.852 216.81Q300.453 226.231 314.75 226.231Q329.375 226.231 338.094 216.669Q346.813 207.106 346.813 190.653Q346.813 175.513 338.305 166.138Q329.797 156.763 315.875 156.763Q300.781 156.763 292.016 166.419Q283.25 176.075 283.25 192.294Q283.25 207.388 291.852 216.81ZM155.75 202.278L155.75 157.888L147.547 157.888Q145.156 163.185 141.664 168.974Q138.172 174.763 134.07 180.575Q129.969 186.388 125.469 192.036Q120.969 197.685 116.563 202.653L116.563 209.31L148.156 209.31L148.156 225.106L155.75 225.106L155.75 209.31L164.375 209.31L164.375 202.278L155.75 202.278ZM360.031 225.106L360.031 157.888L378.594 157.888Q414.125 157.888 414.125 190.653Q414.125 206.216 404.258 215.661Q394.391 225.106 377.844 225.106L360.031 225.106ZM427.344 225.106L462.969 225.106L462.969 217.981L435.219 217.981L435.219 194.45L459.5 194.45L459.5 187.372L435.219 187.372L435.219 165.013L461.469 165.013L461.469 157.888L427.344 157.888L427.344 225.106ZM193.953 163.278Q207.594 163.278 207.594 191.966Q207.594 219.716 193.672 219.716Q179.563 219.716 179.563 192.481Q179.563 163.278 193.953 163.278ZM298.109 171.528Q304.719 163.888 315.313 163.888Q326.188 163.888 332.375 171.153Q338.563 178.419 338.563 191.731Q338.563 204.716 332.188 211.935Q325.813 219.153 314.75 219.153Q304.391 219.153 297.945 211.583Q291.5 204.013 291.5 191.591Q291.5 179.169 298.109 171.528ZM367.906 165.013L367.906 217.981L377.938 217.981Q391.156 217.981 398.516 210.903Q405.875 203.825 405.875 190.841Q405.875 165.013 378.406 165.013L367.906 165.013ZM148.156 202.278L125.234 202.278Q127.531 199.419 130.109 196.231Q132.688 193.044 135.523 189.106Q138.359 185.169 141.5 180.341Q144.641 175.513 148.156 169.372L148.156 202.278Z" />
  </g>
</svg>